<?xml version="1.0" encoding="UTF-8" standalone="no"?>
<!-- Created with Inkscape (http://www.inkscape.org/) -->

<svg
   xmlns:dc="http://purl.org/dc/elements/1.1/"
   xmlns:cc="http://creativecommons.org/ns#"
   xmlns:rdf="http://www.w3.org/1999/02/22-rdf-syntax-ns#"
   xmlns:svg="http://www.w3.org/2000/svg"
   xmlns="http://www.w3.org/2000/svg"
   xmlns:sodipodi="http://sodipodi.sourceforge.net/DTD/sodipodi-0.dtd"
   xmlns:inkscape="http://www.inkscape.org/namespaces/inkscape"
   width="144.24461"
   height="114.44203"
   viewBox="0 0 144.24461 114.44203"
   id="svg4232"
   version="1.1"
   inkscape:version="0.91 r13725"
   sodipodi:docname="logo.svg">
  <defs
     id="defs4234" />
  <sodipodi:namedview
     id="base"
     pagecolor="#ffffff"
     bordercolor="#666666"
     borderopacity="1.0"
     inkscape:pageopacity="0.0"
     inkscape:pageshadow="2"
     inkscape:zoom="0.98994949"
     inkscape:cx="216.20499"
     inkscape:cy="-35.974276"
     inkscape:document-units="px"
     inkscape:current-layer="layer1"
     showgrid="false"
     inkscape:window-width="1920"
     inkscape:window-height="1011"
     inkscape:window-x="0"
     inkscape:window-y="27"
     inkscape:window-maximized="1"
     fit-margin-top="0"
     fit-margin-left="0"
     fit-margin-right="0"
     fit-margin-bottom="0"
     units="px" />
  <metadata
     id="metadata4237">
    <rdf:RDF>
      <cc:Work
         rdf:about="">
        <dc:format>image/svg+xml</dc:format>
        <dc:type
           rdf:resource="http://purl.org/dc/dcmitype/StillImage" />
        <dc:title></dc:title>
      </cc:Work>
    </rdf:RDF>
  </metadata>
  <g
     inkscape:label="Layer 1"
     inkscape:groupmode="layer"
     id="layer1"
     transform="translate(-243.11596,-89.64112)">
    <path
       inkscape:connector-curvature="0"
       id="path4235"
       style="font-style:normal;font-variant:normal;font-weight:normal;font-stretch:normal;font-size:medium;line-height:125%;font-family:'Six Caps';-inkscape-font-specification:'Six Caps';letter-spacing:0px;word-spacing:0px;fill:#ffffff;fill-opacity:1;stroke:none;stroke-width:1px;stroke-linecap:butt;stroke-linejoin:miter;stroke-opacity:1"
       d="m 262.18963,99.02895 q 0,-1.41562 -1.34112,-1.78815 -1.26661,-0.44704 -8.19572,-0.44704 l 0,100.13675 q 6.92911,0 8.19572,-0.44704 1.34112,-0.44703 1.34112,-1.86266 l 0,-95.59186 z m 9.53683,94.99581 q 0,3.79983 -1.63914,5.88601 -1.56464,2.01168 -4.69391,2.98026 -1.49013,0.44704 -3.65082,0.74507 -2.16069,0.22352 -5.96052,0.37253 -3.79983,0.0745 -6.70559,0.0745 l -5.96052,0 0,-114.44201 q 3.05477,0 6.10954,0.0745 3.12927,0 6.33305,0.0745 6.55657,0.14901 9.68585,0.96858 3.20378,0.89408 4.84292,2.90576 1.63914,1.93717 1.63914,5.58798 l 0,94.77229 z" />
    <path
       inkscape:connector-curvature="0"
       id="path4237"
       style="font-style:normal;font-variant:normal;font-weight:normal;font-stretch:normal;font-size:medium;line-height:125%;font-family:'Six Caps';-inkscape-font-specification:'Six Caps';letter-spacing:0px;word-spacing:0px;fill:#ffffff;fill-opacity:1;stroke:none;stroke-width:1px;stroke-linecap:butt;stroke-linejoin:miter;stroke-opacity:1"
       d="m 300.33696,96.79376 -9.53683,0 0,42.91575 9.53683,0 0,7.15263 -9.53683,0 0,50.06837 9.53683,0 0,7.15263 -19.07366,0 0,-114.44201 19.07366,0 0,7.15263 z" />
    <path
       inkscape:connector-curvature="0"
       id="path4239"
       style="font-style:normal;font-variant:normal;font-weight:normal;font-stretch:normal;font-size:medium;line-height:125%;font-family:'Six Caps';-inkscape-font-specification:'Six Caps';letter-spacing:0px;word-spacing:0px;fill:#ffffff;fill-opacity:1;stroke:none;stroke-width:1px;stroke-linecap:butt;stroke-linejoin:miter;stroke-opacity:1"
       d="m 328.94746,96.79376 -11.92104,0 0,42.91575 9.53684,0 0,7.15263 -9.53684,0 0,57.221 -9.53683,0 0,-114.44201 21.45787,0 0,7.15263 z" />
    <path
       inkscape:connector-curvature="0"
       id="path4241"
       style="font-style:normal;font-variant:normal;font-weight:normal;font-stretch:normal;font-size:medium;line-height:125%;font-family:'Six Caps';-inkscape-font-specification:'Six Caps';letter-spacing:0px;word-spacing:0px;fill:#ffffff;fill-opacity:1;stroke:none;stroke-width:1px;stroke-linecap:butt;stroke-linejoin:miter;stroke-opacity:1"
       d="m 353.98165,96.79376 -9.53683,0 0,42.91575 9.53683,0 0,7.15263 -9.53683,0 0,50.06837 9.53683,0 0,7.15263 -19.07367,0 0,-114.44201 19.07367,0 0,7.15263 z" />
    <path
       inkscape:connector-curvature="0"
       id="path4243"
       style="font-style:normal;font-variant:normal;font-weight:normal;font-stretch:normal;font-size:medium;line-height:125%;font-family:'Six Caps';-inkscape-font-specification:'Six Caps';letter-spacing:0px;word-spacing:0px;fill:#ffffff;fill-opacity:1;stroke:none;stroke-width:1px;stroke-linecap:butt;stroke-linejoin:miter;stroke-opacity:1"
       d="m 387.36057,137.3253 q 0,3.57632 -1.78815,5.51348 -1.78816,1.93717 -5.36447,2.75675 3.57631,0.96858 5.36447,2.90575 1.78815,1.93717 1.78815,5.51348 l 0,50.06838 -9.53683,0 0,-50.06838 q 0,-1.78815 -0.44704,-2.75674 -0.44704,-0.96858 -1.34112,-1.41562 -0.89408,-0.44704 -2.23519,-0.52155 -1.34112,-0.0745 -3.12928,-0.0745 l 0,54.8368 -9.53683,0 0,-114.44201 10.72894,0 q 4.84292,0 8.27022,0.81958 3.50181,0.74506 5.36447,2.75674 1.86266,1.93717 1.86266,5.96052 l 0,38.14733 z m -9.53683,-35.76312 q 0,-1.78816 -0.44704,-2.75674 -0.44704,-0.96859 -1.34112,-1.41563 -0.89408,-0.44704 -2.23519,-0.52154 -1.34112,-0.0745 -3.12928,-0.0745 l 0,45.29996 q 1.78816,0 3.12928,-0.0745 1.34111,-0.0745 2.23519,-0.52154 0.89408,-0.44704 1.34112,-1.41563 0.44704,-0.96858 0.44704,-2.75674 l 0,-35.76312 z" />
  </g>
</svg>
